<svg width="30" height="30" viewBox="0 0 30 30" fill="none" xmlns="http://www.w3.org/2000/svg">
<path fill-rule="evenodd" clip-rule="evenodd" d="M28.435 4.39334C29.2161 3.61229 29.2161 2.34596 28.435 1.56491C27.654 0.783862 26.3877 0.783863 25.6066 1.56491L15 12.1715L4.3934 1.56491C3.61235 0.783863 2.34602 0.783862 1.56497 1.56491C0.783922 2.34596 0.783923 3.61229 1.56497 4.39334L12.1716 14.9999L1.56497 25.6065C0.783919 26.3876 0.783922 27.6539 1.56497 28.435C2.34602 29.216 3.61235 29.216 4.3934 28.435L15 17.8284L25.6066 28.435C26.3877 29.216 27.654 29.216 28.435 28.435C29.2161 27.6539 29.2161 26.3876 28.435 25.6065L17.8284 14.9999L28.435 4.39334Z" fill="#5A7F43"/>
</svg>
