<svg width="33" height="30" viewBox="0 0 33 30" fill="none" xmlns="http://www.w3.org/2000/svg">
<path fill-rule="evenodd" clip-rule="evenodd" d="M1.33634 11.4713C0.715093 11.0811 0.711488 10.1771 1.3296 9.78194L16.0977 0.341516C16.4237 0.13315 16.8406 0.131488 17.1682 0.337246L31.4269 9.2926C32.0481 9.68278 32.0517 10.5869 31.4336 10.982L16.6655 20.4224C16.3395 20.6308 15.9226 20.6324 15.595 20.4267L1.33634 11.4713ZM32.3402 13.458C32.6396 13.9221 32.5061 14.541 32.042 14.8404L16.542 24.8404L16.0049 25.187L15.4648 24.8449L0.464832 15.3449C-0.00174892 15.0494 -0.140436 14.4316 0.155065 13.9651C0.450566 13.4985 1.06836 13.3598 1.53494 13.6553L15.9949 22.8133L30.9578 13.1598C31.4218 12.8604 32.0408 12.9939 32.3402 13.458ZM32.042 18.8404C32.5061 18.541 32.6396 17.9221 32.3402 17.458C32.0408 16.9939 31.4218 16.8604 30.9578 17.1598L15.9949 26.8133L1.53494 17.6553C1.06836 17.3598 0.450566 17.4985 0.155065 17.9651C-0.140436 18.4316 -0.00174892 19.0494 0.464832 19.3449L15.4648 28.8449L16.0049 29.187L16.542 28.8404L32.042 18.8404Z" fill="#5A7F43"/>
</svg>
