<svg width="164" height="164" viewBox="0 0 164 164" fill="none" xmlns="http://www.w3.org/2000/svg">
<path fill-rule="evenodd" clip-rule="evenodd" d="M41 82C63.6437 82 82 63.6437 82 41C82 63.6437 100.356 82 123 82C100.356 82 82 100.356 82 123C82 100.356 63.6437 82 41 82ZM41 82C18.3563 82 0 100.356 0 123C0 145.644 18.3563 164 41 164C63.6437 164 82 145.644 82 123C82 145.644 100.356 164 123 164C145.644 164 164 145.644 164 123C164 100.356 145.644 82 123 82C145.644 82 164 63.6437 164 41C164 18.3563 145.644 0 123 0C100.356 0 82 18.3563 82 41C82 18.3563 63.6437 0 41 0C18.3563 0 0 18.3563 0 41C0 63.6437 18.3563 82 41 82Z" fill="#FF5A00"/>
</svg>
