<svg width="164" height="164" viewBox="0 0 164 164" fill="none" xmlns="http://www.w3.org/2000/svg">
<path fill-rule="evenodd" clip-rule="evenodd" d="M92.5 3C92.5 1.34326 91.1569 0 89.5 0H74.5C72.8431 0 71.5 1.34326 71.5 3V56.6504L33.5632 18.7139C32.3916 17.542 30.4921 17.542 29.3205 18.7139L18.7139 29.3203C17.5424 30.4922 17.5424 32.3916 18.7139 33.563L56.6509 71.5H3C1.34314 71.5 0 72.8433 0 74.5V89.5C0 91.1567 1.34314 92.5 3 92.5H56.6509L18.7139 130.437C17.5424 131.608 17.5424 133.508 18.7139 134.68L29.3205 145.286C30.4921 146.458 32.3916 146.458 33.5632 145.286L71.5 107.349V161C71.5 162.657 72.8431 164 74.5 164H89.5C91.1568 164 92.5 162.657 92.5 161V107.349L130.437 145.286C131.608 146.458 133.508 146.458 134.679 145.286L145.286 134.679C146.458 133.508 146.458 131.608 145.286 130.437L107.349 92.5H161C162.657 92.5 164 91.1567 164 89.5V74.5C164 72.8433 162.657 71.5 161 71.5H107.349L145.286 33.563C146.458 32.3916 146.458 30.4922 145.286 29.3208L134.679 18.7139C133.508 17.5425 131.608 17.5425 130.437 18.7139L92.5 56.6509V3Z" fill="#FF5A00"/>
</svg>
