<svg width="164" height="164" viewBox="0 0 164 164" fill="none" xmlns="http://www.w3.org/2000/svg">
<path fill-rule="evenodd" clip-rule="evenodd" d="M24.0173 57.9828C8.63928 42.6048 1.24361e-05 21.7477 1.43373e-05 0L82 7.62939e-06L164 3.05176e-05C164 21.7478 155.361 42.6048 139.983 57.9828C124.605 73.3607 103.748 82 82 82C60.2523 82 39.3952 73.3607 24.0173 57.9828ZM82 82C103.748 82 124.605 90.6393 139.983 106.017C155.361 121.395 164 142.252 164 164L82 164L0 164C5.18507e-06 142.252 8.63927 121.395 24.0173 106.017C39.3952 90.6393 60.2523 82 82 82Z" fill="#FF5A00"/>
</svg>
